<?xml version="1.0" encoding="UTF-8"?>
<svg width="512" height="512" viewBox="0 0 256 256" xmlns="http://www.w3.org/2000/svg">
  <title>Next.js Logo</title>
  <defs>
    <linearGradient id="a" x1="55.633%" x2="83.228%" y1="56.385%" y2="96.08%">
      <stop offset="0%" stop-color="#FFF"/>
      <stop offset="100%" stop-color="#FFF" stop-opacity="0"/>
    </linearGradient>
  </defs>
  <path d="M119.616 0.0847504C119.361 0.116842 118.429 0.246014 117.541 0.344266C82.4181 5.33414 51.0804 28.7086 36.1433 61.0057C28.9789 76.0772 25.3089 92.0536 25.2741 109.144C25.2741 127.608 29.5675 144.851 38.6227 160.648C52.4649 184.702 75.1275 201.847 101.487 208.126C105.779 209.024 110.105 209.694 115.274 210.234C119.616 210.709 134.901 210.709 139.243 210.234C154.528 208.766 167.873 204.901 180.796 198.228C183.272 196.925 183.876 196.516 183.563 196.321C183.389 196.203 175.154 185.304 165.188 172.282L147.161 148.513L122.44 111.715C108.951 91.7487 97.6495 74.9522 97.5451 74.9522C97.4408 74.9174 97.3364 91.6792 97.2669 112.197C97.1626 150.01 97.1278 149.512 96.3305 150.384C95.7716 150.991 95.2127 151.32 94.4502 151.529C93.8913 151.668 92.5765 151.703 87.1126 151.703H80.5126L79.5195 151.111C78.9258 150.759 78.2329 150.152 77.9195 149.686L77.3954 148.858L77.4302 102.505L77.4998 56.1524L78.3319 55.2108C78.7843 54.7011 79.5195 54.1567 79.972 53.9337C80.7345 53.6064 81.5666 53.5716 87.7063 53.5716H94.5198L95.6737 54.2179C96.2674 54.5452 96.9603 55.1591 97.2669 55.5993L97.7911 56.4018L97.8607 77.4297C97.8955 88.8925 97.9999 98.4227 98.0695 98.4227C98.1391 98.4227 99.2234 96.8938 100.516 95.0518C101.809 93.2097 108.027 84.1007 114.525 74.7292L126.441 56.7663L127.421 55.5645C129.066 53.5716 130.711 53.0619 134.064 53.1662C137.382 53.2705 138.814 53.8844 140.041 55.7264C140.495 56.4018 159.696 85.9428 171.229 103.827C173.396 107.273 175.258 110.233 175.397 110.372C175.571 110.581 175.78 110.442 176.304 109.848C188.806 95.4224 196.175 77.1719 197.224 57.8205C197.503 52.4186 197.224 44.7074 196.453 39.3229C192.876 16.1349 181.017 -3.41281 163.439 -14.8644C150.41 -23.3865 135.125 -28.1705 119.616 -28.9034C116.387 -29.0773 122.44 -29.0773 119.616 -28.9034V0.0847504Z" fill="black"/>
  <path d="M172.107 102.505C171.827 102.924 162.355 116.972 151.085 133.747L130.607 164.257L121.982 151.355C117.124 144.264 113.357 138.419 113.357 138.384C113.357 138.28 133.835 138.245 159.138 138.245H204.919L204.223 139.253C199.66 145.759 190.083 157.827 189.248 158.557C188.69 159.045 187.397 159.499 186.452 159.603C185.889 159.673 179.808 159.708 173.087 159.708H160.687L172.107 102.505Z" fill="black"/>
</svg> 