<?xml version="1.0" encoding="UTF-8"?>
<svg width="512" height="512" viewBox="0 0 256 256" xmlns="http://www.w3.org/2000/svg">
  <title>Express.js Logo</title>
  <path fill="#000000" d="M128 0C57.308 0 0 57.308 0 128s57.308 128 128 128 128-57.308 128-128S198.692 0 128 0zm58.067 152.134c-6.877 20.13-21.927 36.102-42.056 42.979-20.13 6.877-42.057 3.438-58.93-9.316-16.873-12.754-26.189-32.884-24.313-54.812 1.876-21.927 14.997-41.157 34.227-51.374 19.23-10.217 42.057-10.217 61.287 0 19.23 10.217 32.351 29.447 34.227 51.374.9 10.217-1.876 20.13-4.442 21.149zm-58.067-89.381c-36.102 0-65.549 29.447-65.549 65.549s29.447 65.549 65.549 65.549 65.549-29.447 65.549-65.549-29.447-65.549-65.549-65.549zm0 117.823c-28.325 0-51.374-23.049-51.374-51.374s23.049-51.374 51.374-51.374 51.374 23.049 51.374 51.374-23.049 51.374-51.374 51.374z"/>
</svg> 