<?xml version="1.0" encoding="UTF-8"?>
<svg width="512" height="512" viewBox="0 0 256 256" xmlns="http://www.w3.org/2000/svg">
  <title>MongoDB Logo</title>
  <path d="M115.9 101.742c-13.186 16.209-13.186 35.042-13.186 35.042s-1.51 18.833 6.041 35.042c7.55 16.209 20.736 25.917 20.736 25.917s12.432-6.041 18.473-16.963c6.041-10.922 7.55-22.999 7.55-22.999s1.51-13.94-3.776-27.88c-5.287-13.94-13.94-21.49-13.94-21.49s-8.654 9.413-21.84 25.623l-.058-32.292z" fill="#01EC64"/>
  <path d="M128 0C57.308 0 0 57.308 0 128s57.308 128 128 128 128-57.308 128-128S198.692 0 128 0zm0 240c-61.856 0-112-50.144-112-112S66.144 16 128 16s112 50.144 112 112-50.144 112-112 112z" fill="#01EC64"/>
  <path d="M134.041 43.833s-37.306 44.1-37.306 93.917c0 49.817 30.511 74.33 35.042 78.106 4.531 3.776 6.041 5.287 6.041 5.287l7.55-94.671-11.327-82.639z" fill="#01EC64"/>
</svg> 