<?xml version="1.0" encoding="UTF-8"?>
<svg width="512" height="512" viewBox="0 0 256 256" xmlns="http://www.w3.org/2000/svg">
    <title>React</title>
    <g fill="#61DAFB">
        <circle cx="128" cy="128" r="20"/>
        <path d="M128,94.9c16.5,0,32.2,1.2,46.6,3.3c18.1,2.7,33.9,7,45.9,12.4c14.7,6.6,23.1,14.3,23.1,22.4
            c0,8.3-8.7,16.2-23.8,23c-11.7,5.2-27.2,9.4-44.9,12.1c-14.5,2.2-30.3,3.3-46.9,3.3c-16.2,0-31.8-1.1-46.1-3.2
            c-18-2.7-33.7-7-45.7-12.3c-14.7-6.6-23.1-14.3-23.1-22.4c0-8.3,8.7-16.2,23.8-23c11.7-5.2,27.2-9.4,44.9-12.1
            C96.1,96,111.8,94.9,128,94.9z" fill="none" stroke="#61DAFB" stroke-width="8"/>
        <path d="M94.9,111.2c8.3-14.3,18-26.9,28.2-37.1c12.8-12.8,25.9-21.8,37.3-26.2c14-5.4,25.1-3.8,29.9,4.5
            c5,8.6,2.9,22.2-5.7,37.8c-6.7,12.1-17.1,25.1-29.9,37.9c-12.4,12.4-25.4,22.8-37.4,30.1c-15,9.1-28.4,11.1-36.2,5.9
            c-8-5.3-10.1-18.9-5.9-36.5C77.9,115.7,86.7,125.3,94.9,111.2z" fill="none" stroke="#61DAFB" stroke-width="8"/>
        <path d="M94.9,144.8c-8.3-14.3-14.5-28.7-17.3-41.1c-3.5-15.5-2.7-28.4,2.5-36c5.3-8,18.9-10.1,36.5-5.9
            c13.6,3.3,28.4,10.5,42.9,20.9c14.1,10.1,27.1,22.3,37.4,35.4c12.7,16.2,18.1,31.8,15.1,41.8c-3.1,10.2-15.9,15.4-34.3,14.3
            c-14.3-0.9-30.5-5.2-46.2-12.4C119.7,156.8,103.1,159.1,94.9,144.8z" fill="none" stroke="#61DAFB" stroke-width="8"/>
    </g>
</svg> 