<?xml version="1.0" encoding="UTF-8"?>
<svg width="512" height="512" viewBox="0 0 256 256" xmlns="http://www.w3.org/2000/svg">
  <title>HTML5 Logo</title>
  <path fill="#E34F26" d="M19.037 0h217.926l-19.866 222.937-89.169 33.063-89.169-33.063L19.037 0z"/>
  <path fill="#EF652A" d="M128 27.063v201.89l72.194-26.748 16.89-175.142H128z"/>
  <path fill="#EBEBEB" d="M128 113.47H91.968l-2.487-27.859H128V57.537H54.39l.65 7.286 6.666 74.711H128v-26.064zm0 68.237l-.13.037-32.278-8.715-2.064-23.09H65.414l4.063 45.48 58.396 16.198.127-.037v-29.873z"/>
  <path fill="#FFF" d="M127.89 113.47v26.064h32.065l-3.021 33.77-29.044 7.844v29.873l58.396-16.198.428-4.813 6.698-75.043.696-7.65h-66.218zm0-55.933v28.074h62.938l.522-5.847 1.19-13.324.649-8.903h-65.299z"/>
</svg> 