<?xml version="1.0" encoding="UTF-8"?>
<svg width="820" height="1180" viewBox="0 0 820 1180" fill="none" xmlns="http://www.w3.org/2000/svg">
  <!-- Background -->
  <rect width="820" height="1180" fill="#1A1B1E"/>
  
  <!-- App Container -->
  <rect x="40" y="40" width="740" height="1100" rx="16" fill="#25262B"/>
  
  <!-- Sidebar -->
  <rect x="40" y="40" width="240" height="1100" rx="16" fill="#2C2E33"/>
  
  <!-- User Profile -->
  <circle cx="160" cy="100" r="30" fill="#7289DA"/>
  <rect x="80" y="160" width="160" height="40" rx="8" fill="#373A40"/>
  
  <!-- Chat List -->
  <rect x="60" y="240" width="200" height="60" rx="8" fill="#373A40"/>
  <rect x="60" y="310" width="200" height="60" rx="8" fill="#2C2E33"/>
  <rect x="60" y="380" width="200" height="60" rx="8" fill="#2C2E33"/>
  
  <!-- Main Chat Area -->
  <rect x="320" y="40" width="460" height="1100" rx="16" fill="#25262B"/>
  
  <!-- Chat Header -->
  <rect x="320" y="40" width="460" height="80" rx="16" fill="#2C2E33"/>
  
  <!-- Messages -->
  <rect x="340" y="160" width="300" height="60" rx="8" fill="#373A40"/>
  <rect x="340" y="240" width="250" height="60" rx="8" fill="#373A40"/>
  <rect x="460" y="320" width="300" height="60" rx="8" fill="#7289DA"/>
  
  <!-- Input Area -->
  <rect x="340" y="1040" width="420" height="60" rx="8" fill="#2C2E33"/>
</svg> 