<?xml version="1.0" encoding="UTF-8"?>
<svg width="390" height="844" viewBox="0 0 390 844" fill="none" xmlns="http://www.w3.org/2000/svg">
  <!-- Background -->
  <rect width="390" height="844" fill="#030014"/>
  
  <!-- Header -->
  <rect x="0" y="0" width="390" height="64" fill="#0F0F1A"/>
  <circle cx="32" cy="32" r="16" fill="#7C3AED"/>
  <text x="60" y="38" fill="white" font-family="Arial" font-size="16">AI Image Generator</text>
  
  <!-- Generation Controls -->
  <rect x="16" y="80" width="358" height="140" rx="8" fill="#0F0F1A"/>
  <text x="32" y="104" fill="white" font-family="Arial" font-size="14">Prompt</text>
  <rect x="32" y="114" width="326" height="40" rx="6" fill="#1F1F2E"/>
  <text x="48" y="138" fill="#9CA3AF" font-family="Arial" font-size="12">Enter your image description...</text>
  <rect x="32" y="164" width="160" height="40" rx="6" fill="#7C3AED"/>
  <text x="82" y="188" fill="white" font-family="Arial" font-size="14">Generate</text>
  
  <!-- Generated Images Grid -->
  <rect x="16" y="236" width="358" height="180" rx="8" fill="#0F0F1A"/>
  <rect x="32" y="252" width="160" height="148" rx="6" fill="#1F1F2E"/>
  <rect x="198" y="252" width="160" height="148" rx="6" fill="#1F1F2E"/>
  
  <!-- Bottom Navigation -->
  <rect x="0" y="780" width="390" height="64" fill="#0F0F1A"/>
  <rect x="32" y="792" width="100" height="40" rx="20" fill="#7C3AED"/>
  <text x="52" y="816" fill="white" font-family="Arial" font-size="12">Generate</text>
  <rect x="144" y="792" width="100" height="40" rx="20" fill="#1F1F2E"/>
  <text x="172" y="816" fill="#E5E7EB" font-family="Arial" font-size="12">Gallery</text>
  <rect x="256" y="792" width="100" height="40" rx="20" fill="#1F1F2E"/>
  <text x="280" y="816" fill="#E5E7EB" font-family="Arial" font-size="12">Settings</text>
  
  <!-- Loading Indicator -->
  <circle cx="195" cy="520" r="32" stroke="#7C3AED" stroke-width="4" stroke-dasharray="60 25"/>
</svg> 