<?xml version="1.0" encoding="UTF-8"?>
<svg width="820" height="1180" viewBox="0 0 820 1180" fill="none" xmlns="http://www.w3.org/2000/svg">
  <!-- Background -->
  <rect width="820" height="1180" fill="#030014"/>
  
  <!-- Header -->
  <rect x="0" y="0" width="820" height="64" fill="#0F0F1A"/>
  <circle cx="40" cy="32" r="20" fill="#7C3AED"/>
  <text x="80" y="40" fill="white" font-family="Arial" font-size="18">AI Image Generator</text>
  
  <!-- Sidebar -->
  <rect x="0" y="64" width="200" height="1116" fill="#0F0F1A"/>
  <rect x="16" y="84" width="168" height="40" rx="8" fill="#1F1F2E"/>
  <text x="48" y="108" fill="#E5E7EB" font-family="Arial" font-size="14">Dashboard</text>
  <rect x="16" y="134" width="168" height="40" rx="8" fill="#7C3AED"/>
  <text x="48" y="158" fill="white" font-family="Arial" font-size="14">Generate</text>
  <rect x="16" y="184" width="168" height="40" rx="8" fill="#1F1F2E"/>
  <text x="48" y="208" fill="#E5E7EB" font-family="Arial" font-size="14">Gallery</text>
  
  <!-- Main Content -->
  <rect x="216" y="80" width="588" height="1084" rx="12" fill="#0F0F1A"/>
  
  <!-- Generation Controls -->
  <rect x="232" y="96" width="556" height="160" rx="8" fill="#1F1F2E"/>
  <text x="248" y="126" fill="white" font-family="Arial" font-size="16">Prompt</text>
  <rect x="248" y="136" width="524" height="40" rx="6" fill="#2D2D3D"/>
  <text x="264" y="160" fill="#9CA3AF" font-family="Arial" font-size="14">Enter your image description...</text>
  <rect x="248" y="186" width="180" height="40" rx="6" fill="#7C3AED"/>
  <text x="308" y="210" fill="white" font-family="Arial" font-size="14">Generate</text>
  
  <!-- Generated Images Grid -->
  <rect x="232" y="272" width="268" height="268" rx="8" fill="#1F1F2E"/>
  <rect x="516" y="272" width="268" height="268" rx="8" fill="#1F1F2E"/>
  <rect x="232" y="556" width="268" height="268" rx="8" fill="#1F1F2E"/>
  <rect x="516" y="556" width="268" height="268" rx="8" fill="#1F1F2E"/>
  <rect x="232" y="840" width="268" height="268" rx="8" fill="#1F1F2E"/>
  <rect x="516" y="840" width="268" height="268" rx="8" fill="#1F1F2E"/>
  
  <!-- Loading Indicator -->
  <circle cx="510" cy="520" r="40" stroke="#7C3AED" stroke-width="4" stroke-dasharray="80 30"/>
</svg> 