<?xml version="1.0" encoding="UTF-8"?>
<svg width="400" height="800" viewBox="0 0 400 800" fill="none" xmlns="http://www.w3.org/2000/svg">
  <!-- Background -->
  <rect width="400" height="800" fill="#030014"/>
  
  <!-- Header -->
  <rect x="20" y="40" width="360" height="60" rx="8" fill="#1C1C1E"/>
  <circle cx="50" cy="70" r="15" fill="#4169E1"/>
  <rect x="280" y="55" width="80" height="30" rx="4" fill="#2C2C2E"/>
  
  <!-- Stats Cards -->
  <rect x="20" y="120" width="360" height="100" rx="8" fill="#4169E1"/>
  <rect x="20" y="240" width="360" height="100" rx="8" fill="#2C2C2E"/>
  <rect x="20" y="360" width="360" height="100" rx="8" fill="#2C2C2E"/>
  
  <!-- Chart Area -->
  <rect x="20" y="480" width="360" height="200" rx="8" fill="#2C2C2E"/>
  <path d="M 40 640 Q 100 580, 200 600 T 360 560" stroke="#4169E1" strokeWidth="3" fill="none"/>
  
  <!-- Bottom Navigation -->
  <rect x="20" y="700" width="360" height="60" rx="8" fill="#1C1C1E"/>
  <rect x="40" y="720" width="60" height="20" rx="4" fill="#2C2C2E"/>
  <rect x="120" y="720" width="60" height="20" rx="4" fill="#2C2C2E"/>
  <rect x="200" y="720" width="60" height="20" rx="4" fill="#2C2C2E"/>
  <rect x="280" y="720" width="60" height="20" rx="4" fill="#2C2C2E"/>
</svg> 