<?xml version="1.0" encoding="UTF-8"?>
<svg width="1000" height="800" viewBox="0 0 1000 800" fill="none" xmlns="http://www.w3.org/2000/svg">
  <!-- Background -->
  <rect width="1000" height="800" fill="#030014"/>
  
  <!-- Sidebar -->
  <rect x="40" y="40" width="200" height="720" rx="12" fill="#1C1C1E"/>
  <circle cx="80" cy="80" r="18" fill="#4169E1"/>
  <rect x="60" y="140" width="160" height="40" rx="8" fill="#2C2C2E"/>
  <rect x="60" y="200" width="160" height="40" rx="8" fill="#2C2C2E"/>
  <rect x="60" y="260" width="160" height="40" rx="8" fill="#2C2C2E"/>
  
  <!-- Main Content -->
  <rect x="280" y="40" width="680" height="720" rx="12" fill="#1C1C1E"/>
  
  <!-- Stats Cards -->
  <rect x="320" y="80" width="180" height="120" rx="8" fill="#4169E1"/>
  <rect x="520" y="80" width="180" height="120" rx="8" fill="#2C2C2E"/>
  <rect x="720" y="80" width="180" height="120" rx="8" fill="#2C2C2E"/>
  
  <!-- Chart Area -->
  <rect x="320" y="240" width="600" height="300" rx="8" fill="#2C2C2E"/>
  <path d="M 340 480 Q 440 380, 540 440 T 740 400 T 900 360" stroke="#4169E1" strokeWidth="3" fill="none"/>
  
  <!-- Table -->
  <rect x="320" y="580" width="600" height="140" rx="8" fill="#2C2C2E"/>
  <rect x="340" y="600" width="560" height="1" fill="#38383A"/>
  <rect x="340" y="640" width="560" height="1" fill="#38383A"/>
  <rect x="340" y="680" width="560" height="1" fill="#38383A"/>
</svg> 