<?xml version="1.0" encoding="UTF-8"?>
<svg width="1920" height="1080" viewBox="0 0 1920 1080" fill="none" xmlns="http://www.w3.org/2000/svg">
  <!-- Background -->
  <rect width="1920" height="1080" fill="#1A1B1E"/>
  
  <!-- App Container -->
  <rect x="160" y="40" width="1600" height="1000" rx="16" fill="#25262B"/>
  
  <!-- Sidebar -->
  <rect x="160" y="40" width="280" height="1000" rx="16" fill="#2C2E33"/>
  
  <!-- Location Search -->
  <rect x="180" y="60" width="240" height="50" rx="8" fill="#373A40"/>
  
  <!-- Location List -->
  <rect x="180" y="130" width="240" height="80" rx="8" fill="#373A40"/>
  <rect x="180" y="230" width="240" height="80" rx="8" fill="#2C2E33"/>
  <rect x="180" y="330" width="240" height="80" rx="8" fill="#2C2E33"/>
  
  <!-- Main Content -->
  <rect x="480" y="40" width="1280" height="1000" rx="16" fill="#25262B"/>
  
  <!-- Weather Map -->
  <rect x="500" y="60" width="1240" height="400" rx="8" fill="#1E1F23"/>
  
  <!-- Weather Details -->
  <rect x="500" y="480" width="400" height="540" rx="8" fill="#2C2E33"/>
  
  <!-- Forecast -->
  <rect x="920" y="480" width="820" height="540" rx="8" fill="#2C2E33"/>
  <rect x="940" y="500" width="180" height="240" rx="8" fill="#373A40"/>
  <rect x="1140" y="500" width="180" height="240" rx="8" fill="#7289DA"/>
  <rect x="1340" y="500" width="180" height="240" rx="8" fill="#373A40"/>
  <rect x="1540" y="500" width="180" height="240" rx="8" fill="#373A40"/>
</svg> 