<?xml version="1.0" encoding="UTF-8"?>
<svg width="400" height="800" viewBox="0 0 400 800" xmlns="http://www.w3.org/2000/svg">
  <!-- Mobile Frame -->
  <defs>
    <linearGradient id="phoneGradient" x1="0%" y1="0%" x2="100%" y2="100%">
      <stop offset="0%" style="stop-color:#2C3E50;stop-opacity:1" />
      <stop offset="100%" style="stop-color:#3498DB;stop-opacity:1" />
    </linearGradient>
  </defs>

  <!-- Phone Frame -->
  <rect x="50" y="50" width="300" height="700" rx="40" fill="#2C3E50"/>
  <rect x="55" y="55" width="290" height="690" rx="35" fill="#1a1a1a"/>
  
  <!-- Screen Content Area (This will be replaced with actual content) -->
  <rect x="60" y="60" width="280" height="680" rx="30" fill="#ffffff"/>
  
  <!-- Notch -->
  <path d="M150 55 L250 55 Q270 55 270 75 L270 85 Q270 95 260 95 L140 95 Q130 95 130 85 L130 75 Q130 55 150 55" fill="#1a1a1a"/>
  
  <!-- Camera -->
  <circle cx="170" cy="75" r="5" fill="#666"/>
  <circle cx="170" cy="75" r="2" fill="#333"/>
  
  <!-- Sensors -->
  <circle cx="190" cy="75" r="3" fill="#666"/>
  <rect x="210" cy="73" width="30" height="4" rx="2" fill="#666"/>
  
  <!-- Home Indicator -->
  <rect x="160" y="720" width="80" height="4" rx="2" fill="#666"/>
  
  <!-- Reflection Effect -->
  <rect x="60" y="60" width="280" height="680" rx="30" fill="url(#phoneGradient)" opacity="0.1"/>
</svg> 