<?xml version="1.0" encoding="UTF-8"?>
<svg width="400" height="800" viewBox="0 0 400 800" fill="none" xmlns="http://www.w3.org/2000/svg">
  <!-- Background -->
  <rect width="400" height="800" fill="#030014"/>
  
  <!-- Header -->
  <rect x="20" y="40" width="360" height="60" rx="8" fill="#1C1C1E"/>
  <circle cx="50" cy="70" r="15" fill="#4169E1"/>
  <rect x="280" y="55" width="80" height="30" rx="15" fill="#2C2C2E"/>
  
  <!-- Story Bar -->
  <rect x="20" y="120" width="360" height="100" rx="8" fill="#1C1C1E"/>
  <circle cx="60" cy="170" r="25" fill="#4169E1"/>
  <circle cx="130" cy="170" r="25" fill="#2C2C2E"/>
  <circle cx="200" cy="170" r="25" fill="#2C2C2E"/>
  <circle cx="270" cy="170" r="25" fill="#2C2C2E"/>
  <circle cx="340" cy="170" r="25" fill="#2C2C2E"/>
  
  <!-- Posts -->
  <rect x="20" y="240" width="360" height="200" rx="8" fill="#1C1C1E"/>
  <circle cx="50" cy="270" r="15" fill="#4169E1"/>
  <rect x="80" y="260" width="200" height="20" rx="4" fill="#2C2C2E"/>
  <rect x="40" y="300" width="320" height="120" rx="4" fill="#2C2C2E"/>
  
  <rect x="20" y="460" width="360" height="200" rx="8" fill="#1C1C1E"/>
  <circle cx="50" cy="490" r="15" fill="#4169E1"/>
  <rect x="80" y="480" width="200" height="20" rx="4" fill="#2C2C2E"/>
  <rect x="40" y="520" width="320" height="120" rx="4" fill="#2C2C2E"/>
  
  <!-- Bottom Navigation -->
  <rect x="20" y="700" width="360" height="60" rx="8" fill="#1C1C1E"/>
  <rect x="40" y="720" width="60" height="20" rx="4" fill="#4169E1"/>
  <rect x="120" y="720" width="60" height="20" rx="4" fill="#2C2C2E"/>
  <rect x="200" y="720" width="60" height="20" rx="4" fill="#2C2C2E"/>
  <rect x="280" y="720" width="60" height="20" rx="4" fill="#2C2C2E"/>
</svg> 